<svg width="61" height="62" viewBox="0 0 61 62" fill="none" xmlns="http://www.w3.org/2000/svg">
<g clip-path="url(#clip0_17_32831)">
<path d="M11.4727 24.7297L20.6768 12.2764C26.6254 4.22662 29.6012 0.201743 32.3756 1.05241C35.1501 1.90307 35.1501 6.83873 35.1501 16.7131V17.6449C35.1501 21.2069 35.1501 22.9863 36.2893 24.1015L36.3494 24.1616C37.5127 25.2528 39.3643 25.2528 43.0706 25.2528C49.7436 25.2528 53.0772 25.2528 54.2044 27.2757L54.2585 27.3779C55.3226 29.4309 53.3898 32.0461 49.5272 37.2673L40.3232 49.7237C34.3716 57.7734 31.3987 61.7983 28.6243 60.9476C25.8499 60.097 25.8499 55.1613 25.8499 45.287V44.3552C25.8499 40.7932 25.8499 39.0137 24.7106 37.8985L24.6505 37.8384C23.4873 36.7473 21.6356 36.7473 17.9294 36.7473C11.2563 36.7473 7.92279 36.7473 6.79859 34.7243C6.77894 34.6906 6.7599 34.6565 6.74148 34.6221C5.6774 32.5691 7.61018 29.957 11.4727 24.7327" fill="#28BB29" fill-opacity="0.21"/>
<path d="M14.5199 25.7339L22.2499 15.2749C27.2459 8.51435 29.7451 5.13405 32.0752 5.84848C34.4053 6.56292 34.4053 10.7081 34.4053 19.0011V19.7837C34.4053 22.7752 34.4053 24.2697 35.3621 25.2063L35.4126 25.2568C36.3896 26.1732 37.9447 26.1732 41.0574 26.1732C46.6618 26.1732 49.4614 26.1732 50.4081 27.8722L50.4535 27.958C51.3472 29.6822 49.724 31.8785 46.48 36.2636L38.75 46.7251C33.7515 53.4857 31.2548 56.866 28.9247 56.1515C26.5946 55.4371 26.5946 51.2919 26.5946 42.9989V42.2163C26.5946 39.2248 26.5946 37.7303 25.6378 36.7937L25.5873 36.7432C24.6103 35.8268 23.0552 35.8268 19.9425 35.8268C14.3381 35.8268 11.5385 35.8268 10.5943 34.1279C10.5778 34.0995 10.5618 34.0709 10.5464 34.042C9.65268 32.3178 11.2759 30.124 14.5199 25.7364" fill="#28BB29"/>
</g>
<defs>
<clipPath id="clip0_17_32831">
<rect width="60.5878" height="60.5878" fill="white" transform="translate(0.206055 0.706085)"/>
</clipPath>
</defs>
</svg>
