



<svg version="1.1" id="Layer_1" xmlns="http://www.w3.org/2000/svg" xmlns:xlink="http://www.w3.org/1999/xlink" x="0px" y="0px"
	 viewBox="0 0 512 512" style="enable-background:new 0 0 512 512;" xml:space="preserve" width="36.795" height="35.645">
<g>
	<g>
		<path fill="#31274f" d="M380.049,148.17h-4.732V10.199C375.317,4.566,370.75,0,365.118,0H146.883c-5.633,0-10.199,4.566-10.199,10.199V148.17
			h-4.732c-25.891,0-46.955,21.063-46.955,46.954v306.677c0,5.633,4.566,10.199,10.199,10.199h321.608
			c5.632,0,10.199-4.566,10.199-10.199V195.124C427.003,169.233,405.94,148.17,380.049,148.17z M157.083,20.398h197.836v351.748
			H157.083V20.398z M406.606,491.602h-0.001H105.396V195.124c0-14.643,11.914-26.556,26.557-26.556h4.732v213.778
			c0,5.633,4.566,10.199,10.199,10.199h218.234c5.632,0,10.199-4.566,10.199-10.199V168.568h4.732
			c14.642,0,26.556,11.913,26.556,26.556V491.602z"/>
	</g>
</g>
<g>
	<g>
		<path fill="#31274f" d="M313.431,52.836h-114.86c-5.633,0-10.199,4.566-10.199,10.199s4.566,10.199,10.199,10.199h114.86
			c5.632,0,10.199-4.566,10.199-10.199S319.063,52.836,313.431,52.836z"/>
	</g>
</g>
<g>
	<g>
		<path fill="#31274f" d="M313.431,104.522h-114.86c-5.633,0-10.199,4.566-10.199,10.199c0,5.633,4.566,10.199,10.199,10.199h114.86
			c5.632,0,10.199-4.566,10.199-10.199C323.63,109.089,319.063,104.522,313.431,104.522z"/>
	</g>
</g>
<g>
	<g>
		<path fill="#31274f" d="M165.226,412.384c-15.737,0-28.54,12.803-28.54,28.54s12.803,28.54,28.54,28.54c15.737,0,28.54-12.803,28.54-28.54
			S180.963,412.384,165.226,412.384z M165.226,449.067c-4.49,0-8.142-3.653-8.142-8.142c0-4.489,3.653-8.142,8.142-8.142
			c4.489,0,8.142,3.653,8.142,8.142C173.368,445.414,169.715,449.067,165.226,449.067z"/>
	</g>
</g>
<g>
	<g>
		<path fill="#31274f" d="M308.608,281.274c-1.578-3.811-5.297-6.296-9.422-6.296h-86.371c-4.125,0-7.844,2.486-9.423,6.296
			c-1.579,3.81-0.706,8.198,2.21,11.115l43.185,43.185c1.992,1.992,4.602,2.987,7.212,2.987c2.611,0,5.22-0.995,7.212-2.987
			l43.185-43.185C309.313,289.472,310.186,285.084,308.608,281.274z M256,313.939l-18.563-18.563h37.124L256,313.939z"/>
	</g>
</g>
<g>
	<g>
		<path fill="#31274f" d="M365.119,430.726h-10.338c-5.632,0-10.199,4.566-10.199,10.199c0,5.633,4.567,10.199,10.199,10.199h10.338
			c5.632,0,10.199-4.566,10.199-10.199C375.318,435.292,370.751,430.726,365.119,430.726z"/>
	</g>
</g>
<g>
	<g>
		<path fill="#31274f" d="M313.431,430.726h-84.996c-5.633,0-10.199,4.566-10.199,10.199c0,5.633,4.566,10.199,10.199,10.199h84.996
			c5.632,0,10.199-4.566,10.199-10.199C323.63,435.292,319.063,430.726,313.431,430.726z"/>
	</g>
</g>
</svg>